<?xml version="1.0" encoding="utf-8"?>
<!-- Generator: Adobe Illustrator 16.0.0, SVG Export Plug-In . SVG Version: 6.00 Build 0)  -->
<!DOCTYPE svg PUBLIC "-//W3C//DTD SVG 1.1//EN" "http://www.w3.org/Graphics/SVG/1.1/DTD/svg11.dtd">
<svg version="1.1" id="Calque_2" xmlns="http://www.w3.org/2000/svg" xmlns:xlink="http://www.w3.org/1999/xlink" x="0px" y="0px"
	 width="27.333px" height="27.333px" viewBox="0 0 27.333 27.333" enable-background="new 0 0 27.333 27.333" xml:space="preserve">
<g>
	<path fill="#E0131C" d="M13.667,27.333C6.131,27.333,0,21.202,0,13.667S6.131,0,13.667,0c7.535,0,13.666,6.131,13.666,13.667
		S21.202,27.333,13.667,27.333z M13.667,1C6.683,1,1,6.682,1,13.667s5.683,12.667,12.667,12.667s12.666-5.682,12.666-12.667
		S20.651,1,13.667,1z"/>
	<path fill-rule="evenodd" clip-rule="evenodd" fill="#E0131C" d="M17.205,4.816c-1.032-0.413-2.551,0.956-3.392,3.058
		c-0.05,0.124-0.084,0.246-0.126,0.369c-0.042-0.124-0.076-0.245-0.124-0.37c-0.823-2.108-2.332-3.49-3.368-3.085
		C9.16,5.194,8.99,7.232,9.813,9.339c0.114,0.292,0.244,0.566,0.382,0.828c-0.262-0.139-0.534-0.271-0.826-0.388
		c-2.102-0.84-4.141-0.684-4.553,0.348c-0.413,1.033,0.956,2.551,3.058,3.392c0.103,0.041,0.202,0.069,0.304,0.105
		c-0.102,0.034-0.202,0.061-0.305,0.099c-2.115,0.807-3.508,2.306-3.111,3.343c0.396,1.04,2.433,1.227,4.548,0.418
		c0.318-0.121,0.614-0.263,0.896-0.412c-0.153,0.28-0.299,0.574-0.426,0.891c-0.84,2.101-0.685,4.14,0.348,4.553
		s2.551-0.957,3.392-3.058c0.05-0.125,0.085-0.246,0.127-0.37c0.042,0.123,0.075,0.246,0.124,0.37
		c0.824,2.108,2.332,3.49,3.367,3.084c1.036-0.404,1.207-2.441,0.384-4.55c-0.115-0.292-0.243-0.565-0.381-0.828
		c0.26,0.14,0.532,0.271,0.823,0.387c2.102,0.84,4.141,0.685,4.554-0.348c0.412-1.032-0.956-2.551-3.059-3.392
		c-0.103-0.041-0.203-0.069-0.306-0.104c0.104-0.035,0.205-0.062,0.308-0.101c2.114-0.807,3.509-2.303,3.11-3.343
		c-0.395-1.038-2.43-1.227-4.547-0.419c-0.318,0.121-0.613,0.262-0.896,0.412c0.153-0.28,0.3-0.573,0.426-0.89
		C18.394,7.268,18.237,5.229,17.205,4.816z M15.6,14.439c-0.428,1.068-1.638,1.587-2.706,1.16c-1.068-0.427-1.588-1.638-1.16-2.706
		c0.427-1.067,1.638-1.587,2.706-1.16C15.508,12.16,16.026,13.372,15.6,14.439z"/>
</g>
</svg>
