<?xml version="1.0" encoding="utf-8"?>
<!-- Generator: Adobe Illustrator 16.0.0, SVG Export Plug-In . SVG Version: 6.00 Build 0)  -->
<!DOCTYPE svg PUBLIC "-//W3C//DTD SVG 1.1//EN" "http://www.w3.org/Graphics/SVG/1.1/DTD/svg11.dtd">
<svg version="1.1" id="Calque_1" xmlns="http://www.w3.org/2000/svg" xmlns:xlink="http://www.w3.org/1999/xlink" x="0px" y="0px"
	 width="27.333px" height="27.332px" viewBox="0 0 27.333 27.332" enable-background="new 0 0 27.333 27.332" xml:space="preserve">
<g>
	<path fill="#E0131C" d="M13.667,0C6.131,0,0,6.131,0,13.667c0,7.535,6.131,13.666,13.667,13.666
		c7.535,0,13.666-6.131,13.666-13.666C27.333,6.131,21.202,0,13.667,0z M13.667,26.332C6.683,26.332,1,20.65,1,13.667
		C1,6.682,6.683,1,13.667,1s12.666,5.682,12.666,12.667C26.333,20.65,20.651,26.332,13.667,26.332z"/>
	<polygon fill="#E0131C" points="19.479,10.13 18.772,10.837 21.1,13.166 14.167,13.166 14.167,6.231 16.495,8.56 17.202,7.853 
		13.667,4.317 10.131,7.854 10.838,8.561 13.167,6.231 13.167,13.166 6.231,13.166 8.56,10.837 7.853,10.13 4.317,13.666 
		7.854,17.201 8.561,16.494 6.231,14.166 13.167,14.166 13.167,21.103 10.838,18.773 10.131,19.48 13.666,23.016 17.202,19.48 
		16.495,18.773 14.167,21.101 14.167,14.166 21.102,14.166 18.772,16.494 19.479,17.201 23.015,13.667 	"/>
</g>
</svg>
