<?xml version="1.0" encoding="utf-8"?>
<!-- Generator: Adobe Illustrator 16.0.0, SVG Export Plug-In . SVG Version: 6.00 Build 0)  -->
<!DOCTYPE svg PUBLIC "-//W3C//DTD SVG 1.1//EN" "http://www.w3.org/Graphics/SVG/1.1/DTD/svg11.dtd">
<svg version="1.1" id="Calque_2" xmlns="http://www.w3.org/2000/svg" xmlns:xlink="http://www.w3.org/1999/xlink" x="0px" y="0px"
	 width="27.333px" height="27.333px" viewBox="0 0 27.333 27.333" enable-background="new 0 0 27.333 27.333" xml:space="preserve">
<path fill="#E0131C" d="M13.667,27.333C6.131,27.333,0,21.202,0,13.667S6.131,0,13.667,0c7.535,0,13.666,6.131,13.666,13.667
	S21.202,27.333,13.667,27.333z M13.667,1C6.683,1,1,6.682,1,13.667s5.683,12.667,12.667,12.667s12.666-5.682,12.666-12.667
	S20.651,1,13.667,1z"/>
<path fill-rule="evenodd" clip-rule="evenodd" fill="#E0131C" d="M10.845,22.992c6.566,0,5.327-6.689,3.722-11.082
	c-1.675-4.581-3.484-6.852-3.484-6.852l0,0c0,0-1.872,2.283-3.722,6.852c-1.755,4.335-2.845,11.082,3.722,11.082H10.845z"/>
<path fill-rule="evenodd" clip-rule="evenodd" fill="#E0131C" d="M19.021,13.18c3.594,0,2.915-3.66,2.037-6.063
	c-0.917-2.507-1.906-3.749-1.906-3.749l0,0c0,0-1.024,1.25-2.036,3.749c-0.961,2.372-1.557,6.063,2.036,6.063H19.021z"/>
</svg>
