<?xml version="1.0" encoding="utf-8"?>
<!-- Generator: Adobe Illustrator 16.0.0, SVG Export Plug-In . SVG Version: 6.00 Build 0)  -->
<!DOCTYPE svg PUBLIC "-//W3C//DTD SVG 1.1//EN" "http://www.w3.org/Graphics/SVG/1.1/DTD/svg11.dtd">
<svg version="1.1" id="Calque_2" xmlns="http://www.w3.org/2000/svg" xmlns:xlink="http://www.w3.org/1999/xlink" x="0px" y="0px"
	 width="27.333px" height="27.333px" viewBox="0 0 27.333 27.333" enable-background="new 0 0 27.333 27.333" xml:space="preserve">
<g>
	<path fill="#E0131C" d="M13.667,27.333C6.131,27.333,0,21.202,0,13.667S6.131,0,13.667,0c7.535,0,13.666,6.131,13.666,13.667
		S21.202,27.333,13.667,27.333z M13.667,1C6.683,1,1,6.682,1,13.667s5.683,12.667,12.667,12.667s12.666-5.682,12.666-12.667
		S20.651,1,13.667,1z"/>
	<path fill="#E0131C" d="M23.954,12.793c-0.401-0.4-1.04-0.448-1.523-0.182l-2.929-2.928c0.279-0.488,0.231-1.111-0.185-1.527
		c-0.4-0.401-1.039-0.448-1.523-0.182l-3.068-3.068c0.11-0.192,0.188-0.399,0.188-0.626c0-0.341-0.134-0.661-0.375-0.902
		c-0.48-0.481-1.321-0.482-1.804,0C12.494,3.619,12.36,3.939,12.36,4.28c0,0.268,0.103,0.511,0.255,0.725L9.664,7.956
		C9.171,7.618,8.468,7.645,8.04,8.073C7.799,8.315,7.666,8.637,7.666,8.979C7.667,9.245,7.77,9.487,7.92,9.7l-2.918,2.918
		c-0.49-0.337-1.194-0.313-1.623,0.117c-0.242,0.241-0.375,0.562-0.375,0.903c0,0.341,0.133,0.661,0.374,0.902
		s0.562,0.374,0.902,0.374c0.211,0,0.405-0.066,0.586-0.162l3.078,3.079c-0.251,0.481-0.192,1.083,0.211,1.486
		c0.241,0.241,0.562,0.374,0.902,0.374c0.211,0,0.405-0.066,0.586-0.161l2.937,2.938c-0.096,0.181-0.161,0.375-0.161,0.584
		c0,0.341,0.133,0.662,0.375,0.903c0.24,0.241,0.561,0.373,0.901,0.373s0.662-0.133,0.903-0.374c0.393-0.395,0.461-0.979,0.23-1.456
		l2.973-2.973c0.172,0.084,0.356,0.141,0.555,0.141c0.342,0,0.662-0.133,0.902-0.374c0.241-0.241,0.375-0.561,0.375-0.902
		c0-0.198-0.057-0.383-0.142-0.556l3.004-3.004c0.173,0.084,0.357,0.141,0.556,0.141c0.341,0,0.661-0.133,0.901-0.374
		c0.242-0.241,0.375-0.562,0.376-0.902C24.329,13.354,24.196,13.034,23.954,12.793z M13.033,21.994l-2.914-2.916
		c0.247-0.398,0.257-0.883,0.026-1.287l2.948-2.949c0.191,0.11,0.399,0.188,0.626,0.188s0.434-0.078,0.625-0.188l2.924,2.924
		c-0.11,0.191-0.188,0.399-0.188,0.626c0,0.255,0.096,0.486,0.234,0.693l-2.928,2.928C13.978,21.75,13.449,21.744,13.033,21.994z
		 M5.436,13.112l2.981-2.981c0.164,0.075,0.34,0.121,0.525,0.121c0.227,0,0.434-0.078,0.625-0.188l3.065,3.065
		c-0.224,0.391-0.224,0.856-0.001,1.248L9.68,17.33c-0.399-0.219-0.889-0.209-1.282,0.027l-3.056-3.056
		c0.127-0.201,0.215-0.421,0.215-0.664C5.557,13.452,5.511,13.276,5.436,13.112z M13.638,5.557c0.226,0,0.433-0.078,0.624-0.187
		l3.064,3.064c-0.11,0.191-0.188,0.398-0.188,0.625c0,0.226,0.077,0.433,0.188,0.624l-2.985,2.985c-0.386-0.212-0.855-0.212-1.242,0
		L10.03,9.6c0.203-0.356,0.233-0.778,0.065-1.148l3.016-3.016C13.276,5.51,13.452,5.557,13.638,5.557z M17.735,17.306l-2.928-2.928
		c0.224-0.391,0.223-0.857-0.001-1.249l2.982-2.983c0.191,0.11,0.399,0.188,0.626,0.188s0.434-0.078,0.624-0.187l2.924,2.924
		c-0.109,0.191-0.188,0.398-0.188,0.624c0,0.255,0.096,0.487,0.234,0.694l-2.961,2.961C18.652,17.096,18.146,17.08,17.735,17.306z"
		/>
</g>
</svg>
