<?xml version="1.0" encoding="utf-8"?>
<!-- Generator: Adobe Illustrator 16.0.0, SVG Export Plug-In . SVG Version: 6.00 Build 0)  -->
<!DOCTYPE svg PUBLIC "-//W3C//DTD SVG 1.1//EN" "http://www.w3.org/Graphics/SVG/1.1/DTD/svg11.dtd">
<svg version="1.1" id="Calque_2" xmlns="http://www.w3.org/2000/svg" xmlns:xlink="http://www.w3.org/1999/xlink" x="0px" y="0px"
	 width="26.333px" height="26.333px" viewBox="0 0 26.333 26.333" enable-background="new 0 0 26.333 26.333" xml:space="preserve">
<path fill-rule="evenodd" clip-rule="evenodd" fill="#46B8B8" d="M13.167,0C5.896,0,0,5.895,0,13.167s5.896,13.167,13.167,13.167
	s13.166-5.895,13.166-13.167S20.438,0,13.167,0z M16.799,13.672l-0.692,0.692l0.346,1.384h-0.692l0.346,3.46h0.692l-1.038,2.768
	v0.346l1.384,0.691h-2.422v-0.691l-0.692-1.73l0.346-0.346L14.031,19.9l-0.692-4.152h-0.346L12.302,19.9l-0.346,0.346l0.346,0.346
	l-0.692,1.73v0.691H9.534l1.038-0.691v-0.346l-1.038-2.768h0.692l0.691-3.46H9.88l0.346-1.384l-0.692-0.692
	c0,0,0.35-0.732,0.346-0.692c-0.004,0.04-3.114-2.422-3.114-2.422l0.346-0.692l2.076-1.73L8.496,6.753h2.422L8.439,5.584
	l2.132-1.599c1.732-1.467,2.768-1.384,2.768-1.384c2.287,0,2.076,3.979,2.076,3.979h-0.692v0.518l2.768-0.346l-0.692,1.383
	l2.237,1.73l0.346,0.692l-2.929,2.422L16.799,13.672z"/>
</svg>
