<?xml version="1.0" encoding="utf-8"?>
<!-- Generator: Adobe Illustrator 16.0.0, SVG Export Plug-In . SVG Version: 6.00 Build 0)  -->
<!DOCTYPE svg PUBLIC "-//W3C//DTD SVG 1.1//EN" "http://www.w3.org/Graphics/SVG/1.1/DTD/svg11.dtd">
<svg version="1.1" id="Calque_2" xmlns="http://www.w3.org/2000/svg" xmlns:xlink="http://www.w3.org/1999/xlink" x="0px" y="0px"
	 width="26.333px" height="26.333px" viewBox="0 0 26.333 26.333" enable-background="new 0 0 26.333 26.333" xml:space="preserve">
<path fill-rule="evenodd" clip-rule="evenodd" fill="#F1C266" d="M13.167,0C5.896,0,0,5.895,0,13.167s5.896,13.167,13.167,13.167
	s13.166-5.895,13.166-13.167S20.438,0,13.167,0z M20.29,17.123l-1.315-0.638h-1.973l-0.219,5.958l1.534,0.638h-3.945l-0.219-1.915
	h-0.438l-0.22-4.681h-0.657l-0.219,4.681H12.18l-0.22,1.915H8.015l1.535-0.638l-0.22-5.958H7.358l-1.314,0.638l-0.877-5.745
	l3.507-2.979L7.796,7.335h2.411l0.438-1.702L9.988,4.782l1.754-1.064L11.96,3.08h2.411l0.22,0.638l1.753,1.064l-0.657,0.851
	l0.438,1.702h2.411L17.66,8.399l3.507,2.979L20.29,17.123z"/>
</svg>
