<?xml version="1.0" encoding="utf-8"?>
<!-- Generator: Adobe Illustrator 15.0.2, SVG Export Plug-In . SVG Version: 6.00 Build 0)  -->
<!DOCTYPE svg PUBLIC "-//W3C//DTD SVG 1.1//EN" "http://www.w3.org/Graphics/SVG/1.1/DTD/svg11.dtd">
<svg version="1.1" id="Calque_1" xmlns="http://www.w3.org/2000/svg" xmlns:xlink="http://www.w3.org/1999/xlink" x="0px" y="0px"
	 width="26.333px" height="26.333px" viewBox="0 0 26.333 26.333" enable-background="new 0 0 26.333 26.333" xml:space="preserve">
<rect display="none" fill="none" width="26.333" height="26.333"/>
<path fill="#45B9B9" d="M13.167,0C5.896,0,0,5.895,0,13.167c0,7.271,5.896,13.167,13.167,13.167s13.166-5.896,13.166-13.167
	C26.333,5.895,20.438,0,13.167,0z M21.071,12.549c-0.7,0.329-1.405,0.654-2.1,0.99c0.006,0.097,0.081,0.124,0.095,0.213
	c0.212,0.369,0.417,0.748,0.612,1.131c-0.234,0.418-0.5,0.803-0.754,1.201c-0.182,0.313-0.397,0.595-0.564,0.92
	c-0.103,0.127-0.116,0.342-0.261,0.425c-0.266-0.134-0.446-0.354-0.683-0.518c-0.055,0.039,0.039,0.133,0.023,0.212
	c0,0.022,0,0.047,0,0.068c0.021-0.003,0.022,0.011,0.023,0.026c0.247,0.837,0.523,1.645,0.777,2.474
	c0.085,0.285,0.189,0.552,0.259,0.85c-0.039,0-0.078,0-0.117,0c-0.509,0.055-1.125,0.008-1.674,0.022
	c0.148,0.49,0.418,0.855,0.543,1.369c-0.951-0.111-1.866-0.46-2.829-0.638c-0.247,0.414-0.467,0.854-0.659,1.321
	c0.192,0.49,0.415,0.948,0.611,1.438c-0.387-0.233-0.717-0.524-1.108-0.755c-0.011-0.084,0.083-0.058,0.07-0.14
	c0-0.709,0-1.417,0-2.123c-0.089-0.052-0.201-0.08-0.353-0.07c-0.117,0-0.212,0.022-0.283,0.07c0,0.698,0,1.398,0,2.097
	c0.027,0.061,0.094,0.081,0.094,0.166c-0.356,0.249-0.714,0.497-1.062,0.755c0.117-0.433,0.385-0.921,0.567-1.366
	c0.019,0.003,0.022,0.021,0.046,0.021c-0.231-0.481-0.482-0.947-0.707-1.437c-0.914,0.217-1.816,0.445-2.735,0.66
	c0.16-0.432,0.356-0.823,0.544-1.227c-0.007-0.069,0.052-0.072,0.045-0.143c-0.086-0.069-0.337,0.024-0.424-0.046
	c-0.063,0-0.126,0-0.189,0c-0.103,0-0.203,0-0.307,0c-0.125-0.015-0.314,0.031-0.401-0.023c-0.054,0-0.109,0-0.163,0
	c-0.087,0-0.174,0-0.261,0c-0.234-0.154,0.012-0.618,0.119-0.92c0.235-0.663,0.576-1.418,0.706-2.122
	c-0.033-0.101-0.157-0.108-0.118-0.282c-0.022-0.044-0.095,0.06-0.141,0.071c-0.113,0.027-0.143,0.14-0.259,0.164
	c-0.508-0.851-1.05-1.669-1.58-2.498c0.08-0.188,0.168-0.367,0.283-0.52c0.117-0.299,0.291-0.542,0.424-0.825
	c-0.7-0.351-1.423-0.681-2.146-1.014c-0.162-0.373-0.346-0.723-0.542-1.062c0-0.006,0-0.015,0-0.022
	c0.285,0.169,0.574,0.346,0.896,0.542c0.266,0.164,0.59,0.482,0.895,0.542c0.438,0.087,0.903-0.063,1.438,0c0.009,0,0.018,0,0.024,0
	c0.036-0.16,0.153-0.24,0.189-0.4c1.186-1.288,2.385-2.564,3.583-3.843c0.068-0.037-0.049-0.11,0.024-0.141
	c0.054-0.125,0.087-0.274,0.141-0.402c0.048-0.431-0.279-0.731-0.448-1.083c0.07-0.117,0.182-0.194,0.235-0.331
	c0.143-0.344,0.186-0.789,0.378-1.083c0.123-0.339,0.271-0.656,0.376-1.014c0.3-0.825,0.615-1.634,0.92-2.452
	c0.007,0,0.016,0,0.022,0c0.114,0.414,0.277,0.775,0.402,1.179c0.049,0.225,0.146,0.402,0.211,0.614
	c0.201,0.545,0.392,1.101,0.59,1.649c0.405,0.113,0.943,0.092,1.415,0.142c0.104,0.017-0.089,0.104-0.07,0.189
	c-0.259,0.164-0.563,0.286-0.804,0.471c0.081,0.134,0.266,0.161,0.402,0.236c-0.083,0.177-0.326,0.191-0.52,0.259
	c-0.01,0.073,0.063,0.063,0.07,0.118c-0.09,0.343-0.475,0.613-0.401,0.968c-0.038,0.076-0.123,0.11-0.163,0.188
	C14.326,7.8,14.345,7.79,14.35,7.763c0.07,0.065,0.068,0.2,0.117,0.285c1.287,1.324,2.496,2.725,3.749,4.078
	c0,0.008,0,0.017,0,0.023c0.06,0.145,0.138,0.272,0.214,0.4c0.527-0.066,0.983,0.092,1.414,0c0.293-0.062,0.616-0.38,0.873-0.542
	c0.314-0.199,0.617-0.344,0.872-0.542C21.492,11.808,21.224,12.185,21.071,12.549z"/>
</svg>
