<?xml version="1.0" encoding="utf-8"?>
<!-- Generator: Adobe Illustrator 15.0.2, SVG Export Plug-In . SVG Version: 6.00 Build 0)  -->
<!DOCTYPE svg PUBLIC "-//W3C//DTD SVG 1.1//EN" "http://www.w3.org/Graphics/SVG/1.1/DTD/svg11.dtd">
<svg version="1.1" id="Calque_1" xmlns="http://www.w3.org/2000/svg" xmlns:xlink="http://www.w3.org/1999/xlink" x="0px" y="0px"
	 width="26.333px" height="26.333px" viewBox="0 0 26.333 26.333" enable-background="new 0 0 26.333 26.333" xml:space="preserve">
<path fill-rule="evenodd" clip-rule="evenodd" fill="#45B9B9" d="M13.167,0C5.896,0,0,5.895,0,13.167
	c0,7.271,5.896,13.167,13.167,13.167s13.166-5.896,13.166-13.167C26.333,5.895,20.438,0,13.167,0 M20.29,17.123l-1.315-0.639h-1.973
	l-0.22,5.957l1.534,0.64h-3.944l-0.22-1.916h-0.438l-0.221-4.681h-0.657l-0.219,4.681h-0.438l-0.22,1.916H8.016l1.535-0.64
	l-0.22-5.957H7.357l-1.314,0.639l-0.877-5.746l3.507-2.978L7.796,7.335h2.411l0.438-1.702L9.988,4.783l1.754-1.064l0.219-0.638
	h2.412l0.22,0.638l1.753,1.064l-0.658,0.851l0.439,1.702h2.41l-0.877,1.064l3.508,2.978L20.29,17.123z"/>
<rect display="none" fill="none" width="26.333" height="26.333"/>
</svg>
