<?xml version="1.0" encoding="utf-8"?>
<!-- Generator: Adobe Illustrator 15.0.2, SVG Export Plug-In . SVG Version: 6.00 Build 0)  -->
<!DOCTYPE svg PUBLIC "-//W3C//DTD SVG 1.1//EN" "http://www.w3.org/Graphics/SVG/1.1/DTD/svg11.dtd">
<svg version="1.1" id="Calque_1" xmlns="http://www.w3.org/2000/svg" xmlns:xlink="http://www.w3.org/1999/xlink" x="0px" y="0px"
	 width="26.333px" height="26.333px" viewBox="0 0 26.333 26.333" enable-background="new 0 0 26.333 26.333" xml:space="preserve">
<path fill="#45B9B9" d="M13.167,0C5.896,0,0,5.896,0,13.167c0,7.272,5.896,13.167,13.167,13.167s13.166-5.896,13.166-13.167
	C26.333,5.896,20.438,0,13.167,0 M16.799,13.672l-0.692,0.691l0.347,1.385h-0.691l0.346,3.459h0.691l-1.037,2.769v0.346l1.384,0.692
	h-2.422v-0.692l-0.69-1.729l0.346-0.347L14.032,19.9l-0.692-4.151h-0.346L12.302,19.9l-0.346,0.345l0.346,0.348l-0.692,1.729v0.692
	H9.534l1.038-0.692v-0.346l-1.038-2.768h0.692l0.692-3.461H9.88l0.346-1.384L9.534,13.67c0,0,0.35-0.731,0.346-0.691
	s-3.114-2.422-3.114-2.422l0.346-0.692l2.076-1.729L8.496,6.753h2.422L8.44,5.584l2.132-1.599c1.732-1.467,2.768-1.384,2.768-1.384
	c2.288,0,2.077,3.98,2.077,3.98h-0.693V7.1l2.77-0.346l-0.693,1.383l2.238,1.729l0.346,0.692l-2.93,2.422L16.799,13.672z"/>
<rect display="none" fill="none" width="26.333" height="26.333"/>
</svg>
